<?xml version="1.0" encoding="UTF-8" standalone="no"?>
<svg
   width="141.36"
   height="21.96"
   viewBox="0 0 141.36 21.96"
   version="1.1"
   id="svg5"
   sodipodi:docname="logo.svg"
   inkscape:version="1.1 (c68e22c387, 2021-05-23)"
   xmlns:inkscape="http://www.inkscape.org/namespaces/inkscape"
   xmlns:sodipodi="http://sodipodi.sourceforge.net/DTD/sodipodi-0.dtd"
   xmlns="http://www.w3.org/2000/svg"
   xmlns:svg="http://www.w3.org/2000/svg">
  <defs
     id="defs9" />
  <sodipodi:namedview
     id="namedview7"
     pagecolor="#ffffff"
     bordercolor="#666666"
     borderopacity="1.0"
     inkscape:pageshadow="2"
     inkscape:pageopacity="0.0"
     inkscape:pagecheckerboard="0"
     showgrid="false"
     inkscape:zoom="3.7422184"
     inkscape:cx="66.13724"
     inkscape:cy="-7.3485823"
     inkscape:window-width="1600"
     inkscape:window-height="837"
     inkscape:window-x="-8"
     inkscape:window-y="-8"
     inkscape:window-maximized="1"
     inkscape:current-layer="svg5" />
  <g
     id="logo"
     transform="matrix(1.254076,0,0,1,-225.18184,-47.52)">
    <path
       id="Path_10"
       data-name="Path 10"
       d="M 26.91,0 26.85,-21 H 21.03 L 14.37,-9.81 7.53,-21 H 1.71 V 0 h 6.45 v -9.24 l 4.56,7.35 h 3.12 L 20.4,-9.57 20.46,0 Z M 37.29,-5.34 V -8.1 h 8.88 v -5.1 h -8.88 v -2.46 H 47.4 V -21 H 30.33 V 0 H 47.79 V -5.34 Z M 50.52,0 h 10.35 c 7.02,0 11.85,-3.99 11.85,-10.5 0,-6.51 -4.83,-10.5 -11.85,-10.5 H 50.52 Z m 7.08,-5.52 v -9.96 h 2.97 a 4.625,4.625 0 0 1 5.01,4.98 4.625,4.625 0 0 1 -5.01,4.98 z M 75.3,0 h 7.08 V -21 H 75.3 Z m 21.36,0.48 c 4.11,0 7.35,-1.5 9.42,-4.2 l -4.47,-3.99 a 5.673,5.673 0 0 1 -4.59,2.46 c -2.94,0 -4.92,-2.04 -4.92,-5.25 0,-3.21 1.98,-5.25 4.92,-5.25 a 5.673,5.673 0 0 1 4.59,2.46 l 4.47,-3.99 c -2.07,-2.7 -5.31,-4.2 -9.42,-4.2 -6.75,0 -11.7,4.53 -11.7,10.98 0,6.45 4.95,10.98 11.7,10.98 z"
       transform="translate(183,69)"
       fill="#1a1a1a" />
  </g>
</svg>
